<svg xmlns="http://www.w3.org/2000/svg" xmlns:xlink="http://www.w3.org/1999/xlink" width="477.26" height="356.9" viewBox="0 0 477.26 356.9"><defs><style>.a{fill:none;}.av,.b{fill:#21264c;}.c{fill:#599bd1;}.d,.f{fill:#66a4e2;}.d,.g{opacity:0.5;}.e{opacity:0.25;}.h{fill:url(#a);}.i{fill:url(#b);}.j{fill:url(#c);}.k{fill:url(#d);}.l{fill:#fff;}.m{fill:url(#e);}.n{fill:url(#f);}.o{fill:url(#g);}.p{fill:url(#h);}.q{fill:#0b2d60;}.r{fill:url(#i);}.s{fill:#f4f4f4;}.ai,.t{fill:#cae7fb;}.t{opacity:0.55;}.u{fill:#0568b4;}.v{fill:#55b3fc;}.w{fill:#172a47;}.x{clip-path:url(#j);}.y{fill:#f5b59d;}.z{fill:#11213d;}.aa{fill:#ffb9b0;}.ab{fill:#111633;}.ac{fill:#182c56;}.ad{fill:#0d1b35;}.ae{fill:#f9a2b9;}.af{fill:#ddd5c7;}.ag{fill:#aaa393;}.ah{fill:#86d61d;}.aj{fill:#f1f2f2;}.ak{fill:#292d52;}.al{fill:#f9a6a6;}.am{fill:#28264a;}.an{fill:#151935;}.ao{fill:#006cb6;}.ap{fill:#fcffed;}.aq{fill:#7bcb12;}.ar{fill:url(#k);}.as{fill:#ffaa8c;}.at{fill:url(#l);}.au{fill:#fac4b3;}.av{opacity:0.1;}.aw{fill:#fab19e;}.ax{fill:#f69982;}.ay{fill:#f3ab9c;}.az{fill:#192953;}</style><linearGradient id="a" x1="258.962" y1="0.5" x2="259.962" y2="0.5" gradientUnits="objectBoundingBox"><stop offset="0" stop-color="#dae4f7"/><stop offset="0.007" stop-color="#dae3f6"/><stop offset="0.549" stop-color="#e0e3e8"/><stop offset="1" stop-color="#e3e3e3"/></linearGradient><linearGradient id="b" x1="547.201" y1="0.5" x2="548.615" y2="0.5" xlink:href="#a"/><linearGradient id="c" x1="260.929" y1="0.5" x2="261.929" y2="0.5" xlink:href="#a"/><linearGradient id="d" x1="469.503" y1="0.5" x2="470.503" y2="0.5" xlink:href="#a"/><linearGradient id="e" x1="453.655" y1="0.5" x2="455.069" y2="0.5" xlink:href="#a"/><linearGradient id="f" x1="393.414" y1="0.5" x2="394.414" y2="0.5" xlink:href="#a"/><linearGradient id="g" x1="200.572" y1="0.5" x2="201.529" y2="0.5" xlink:href="#a"/><linearGradient id="h" x1="137.759" y1="0.5" x2="138.73" y2="0.5" xlink:href="#a"/><linearGradient id="i" x1="0.081" y1="1.521" x2="0.85" y2="-0.484" xlink:href="#a"/><clipPath id="j"><path class="a" d="M495.2,873.556c-1.871,0-3.533-2.015-3.784-4.586L476.144,712.231a6.255,6.255,0,0,1,1.428-4.759,3.237,3.237,0,0,1,2.355-1.166H750.978a3.239,3.239,0,0,1,2.356,1.166,6.255,6.255,0,0,1,1.427,4.759L739.493,868.97c-.25,2.571-1.912,4.586-3.784,4.586Z"/></clipPath><linearGradient id="k" x1="302.876" y1="0.5" x2="303.876" y2="0.5" gradientUnits="objectBoundingBox"><stop offset="0" stop-color="#ecc462"/><stop offset="1" stop-color="#e5782d"/></linearGradient><linearGradient id="l" x1="126.722" y1="0.5" x2="127.722" y2="0.5" xlink:href="#a"/></defs><g transform="translate(-380.868 -580.333)"><path class="b" d="M384.444,937.233h8.476a1.571,1.571,0,0,0,0-3.143h-8.476a1.571,1.571,0,1,0,0,3.143Z"/><path class="b" d="M400.607,937.233H857.313c1.575-1.387.615-3.143-.757-3.143H400.69a1.63,1.63,0,0,0-1.633,1.308A1.572,1.572,0,0,0,400.607,937.233Z"/><path class="c" d="M480.412,847.282a72.872,72.872,0,0,0-2.125,87.44H751.816a72.932,72.932,0,0,0,15.331-78.346,44.043,44.043,0,0,1-.74-31.349c0-.017,0-.017.008-.017C784.74,773.3,774.132,722.343,742.706,711.2h-.017c-.9-.318-1.79-.671-2.667-1.041a43.942,43.942,0,0,1-25.611-31.134c-16.053-74.458-50.7-101.06-98.673-98.531-40.967,2.159-82.934,17.784-96.871,77.2a64.273,64.273,0,0,1-20.956,34.291,63.111,63.111,0,0,1-8.818,6.306c-19.976,11.872-30.188,35.521-30.188,63.4,0,23.607,7.3,50.224,22.2,75.3A9.1,9.1,0,0,1,480.412,847.282Z"/><rect class="d" width="409.425" height="2.567" transform="translate(412.843 934.075)"/><g class="e"><path class="f" d="M454.3,703.1a2.069,2.069,0,1,0-2.069,2.069A2.069,2.069,0,0,0,454.3,703.1Z"/><path class="f" d="M478.008,703.1a2.069,2.069,0,1,0-2.069,2.069A2.069,2.069,0,0,0,478.008,703.1Z"/><path class="f" d="M501.717,703.1a2.069,2.069,0,1,0-2.068,2.069A2.068,2.068,0,0,0,501.717,703.1Z"/><path class="f" d="M525.427,703.1a2.069,2.069,0,1,0-2.068,2.069A2.068,2.068,0,0,0,525.427,703.1Z"/><path class="f" d="M549.827,703.1a2.069,2.069,0,1,0-2.069,2.069A2.069,2.069,0,0,0,549.827,703.1Z"/><path class="f" d="M573.537,703.1a2.069,2.069,0,1,0-2.069,2.069A2.069,2.069,0,0,0,573.537,703.1Z"/><path class="f" d="M597.247,703.1a2.069,2.069,0,1,0-2.069,2.069A2.069,2.069,0,0,0,597.247,703.1Z"/><path class="f" d="M620.956,703.1a2.069,2.069,0,1,0-2.068,2.069A2.068,2.068,0,0,0,620.956,703.1Z"/><path class="f" d="M442.841,694.188a2.069,2.069,0,1,0-2.069,2.068A2.069,2.069,0,0,0,442.841,694.188Z"/><path class="f" d="M466.55,694.188a2.068,2.068,0,1,0-2.068,2.068A2.068,2.068,0,0,0,466.55,694.188Z"/><path class="f" d="M490.26,694.188a2.069,2.069,0,1,0-2.068,2.068A2.068,2.068,0,0,0,490.26,694.188Z"/><path class="f" d="M513.97,694.188a2.068,2.068,0,1,0-2.069,2.068A2.069,2.069,0,0,0,513.97,694.188Z"/><path class="f" d="M538.37,694.188a2.069,2.069,0,1,0-2.069,2.068A2.069,2.069,0,0,0,538.37,694.188Z"/><path class="f" d="M562.079,694.188a2.068,2.068,0,1,0-2.068,2.068A2.068,2.068,0,0,0,562.079,694.188Z"/><path class="f" d="M585.789,694.188a2.069,2.069,0,1,0-2.068,2.068A2.068,2.068,0,0,0,585.789,694.188Z"/><path class="f" d="M609.5,694.188a2.069,2.069,0,1,0-2.069,2.068A2.069,2.069,0,0,0,609.5,694.188Z"/><path class="f" d="M454.3,684.614a2.069,2.069,0,1,0-2.069,2.068A2.069,2.069,0,0,0,454.3,684.614Z"/><path class="f" d="M478.008,684.614a2.069,2.069,0,1,0-2.069,2.068A2.069,2.069,0,0,0,478.008,684.614Z"/><path class="f" d="M501.717,684.614a2.069,2.069,0,1,0-2.068,2.068A2.068,2.068,0,0,0,501.717,684.614Z"/><path class="f" d="M525.427,684.614a2.069,2.069,0,1,0-2.068,2.068A2.068,2.068,0,0,0,525.427,684.614Z"/><path class="f" d="M549.827,684.614a2.069,2.069,0,1,0-2.069,2.068A2.069,2.069,0,0,0,549.827,684.614Z"/><path class="f" d="M573.537,684.614a2.069,2.069,0,1,0-2.069,2.068A2.069,2.069,0,0,0,573.537,684.614Z"/><path class="f" d="M597.247,684.614a2.069,2.069,0,1,0-2.069,2.068A2.069,2.069,0,0,0,597.247,684.614Z"/><path class="f" d="M620.956,684.614a2.069,2.069,0,1,0-2.068,2.068A2.068,2.068,0,0,0,620.956,684.614Z"/><path class="f" d="M442.841,675.7a2.069,2.069,0,1,0-2.069,2.068A2.069,2.069,0,0,0,442.841,675.7Z"/><path class="f" d="M466.55,675.7a2.068,2.068,0,1,0-2.068,2.068A2.068,2.068,0,0,0,466.55,675.7Z"/><path class="f" d="M490.26,675.7a2.069,2.069,0,1,0-2.068,2.068A2.068,2.068,0,0,0,490.26,675.7Z"/><path class="f" d="M513.97,675.7a2.068,2.068,0,1,0-2.069,2.068A2.069,2.069,0,0,0,513.97,675.7Z"/><path class="f" d="M538.37,675.7a2.069,2.069,0,1,0-2.069,2.068A2.069,2.069,0,0,0,538.37,675.7Z"/><path class="f" d="M562.079,675.7a2.068,2.068,0,1,0-2.068,2.068A2.068,2.068,0,0,0,562.079,675.7Z"/><path class="f" d="M585.789,675.7a2.069,2.069,0,1,0-2.068,2.068A2.068,2.068,0,0,0,585.789,675.7Z"/><path class="f" d="M609.5,675.7a2.069,2.069,0,1,0-2.069,2.068A2.069,2.069,0,0,0,609.5,675.7Z"/><path class="f" d="M454.3,666.128a2.069,2.069,0,1,0-2.069,2.069A2.069,2.069,0,0,0,454.3,666.128Z"/><circle class="f" cx="2.069" cy="2.069" r="2.069" transform="translate(473.87 664.06)"/><path class="f" d="M501.717,666.128a2.069,2.069,0,1,0-2.068,2.069A2.068,2.068,0,0,0,501.717,666.128Z"/><circle class="f" cx="2.069" cy="2.069" r="2.069" transform="translate(521.29 664.06)"/><path class="f" d="M549.827,666.128a2.069,2.069,0,1,0-2.069,2.069A2.068,2.068,0,0,0,549.827,666.128Z"/><path class="f" d="M573.537,666.128a2.069,2.069,0,1,0-2.069,2.069A2.069,2.069,0,0,0,573.537,666.128Z"/><path class="f" d="M597.247,666.128a2.069,2.069,0,1,0-2.069,2.069A2.069,2.069,0,0,0,597.247,666.128Z"/><path class="f" d="M620.956,666.128a2.069,2.069,0,1,0-2.068,2.069A2.068,2.068,0,0,0,620.956,666.128Z"/><path class="f" d="M442.841,657.217a2.069,2.069,0,1,0-2.069,2.069A2.069,2.069,0,0,0,442.841,657.217Z"/><path class="f" d="M466.55,657.217a2.068,2.068,0,1,0-2.068,2.069A2.068,2.068,0,0,0,466.55,657.217Z"/><path class="f" d="M490.26,657.217a2.069,2.069,0,1,0-2.068,2.069A2.068,2.068,0,0,0,490.26,657.217Z"/><path class="f" d="M513.97,657.217a2.068,2.068,0,1,0-2.069,2.069A2.068,2.068,0,0,0,513.97,657.217Z"/><path class="f" d="M538.37,657.217a2.069,2.069,0,1,0-2.069,2.069A2.069,2.069,0,0,0,538.37,657.217Z"/><path class="f" d="M562.079,657.217a2.068,2.068,0,1,0-2.068,2.069A2.068,2.068,0,0,0,562.079,657.217Z"/><path class="f" d="M585.789,657.217a2.069,2.069,0,1,0-2.068,2.069A2.068,2.068,0,0,0,585.789,657.217Z"/><path class="f" d="M609.5,657.217a2.069,2.069,0,1,0-2.069,2.069A2.068,2.068,0,0,0,609.5,657.217Z"/><path class="f" d="M454.3,647.643a2.069,2.069,0,1,0-2.069,2.069A2.069,2.069,0,0,0,454.3,647.643Z"/><path class="f" d="M478.008,647.643a2.069,2.069,0,1,0-2.069,2.069A2.069,2.069,0,0,0,478.008,647.643Z"/><path class="f" d="M501.717,647.643a2.069,2.069,0,1,0-2.068,2.069A2.068,2.068,0,0,0,501.717,647.643Z"/><path class="f" d="M525.427,647.643a2.069,2.069,0,1,0-2.068,2.069A2.068,2.068,0,0,0,525.427,647.643Z"/><path class="f" d="M549.827,647.643a2.069,2.069,0,1,0-2.069,2.069A2.068,2.068,0,0,0,549.827,647.643Z"/><path class="f" d="M573.537,647.643a2.069,2.069,0,1,0-2.069,2.069A2.069,2.069,0,0,0,573.537,647.643Z"/><path class="f" d="M597.247,647.643a2.069,2.069,0,1,0-2.069,2.069A2.069,2.069,0,0,0,597.247,647.643Z"/><path class="f" d="M620.956,647.643a2.069,2.069,0,1,0-2.068,2.069A2.068,2.068,0,0,0,620.956,647.643Z"/><path class="f" d="M442.841,638.732a2.069,2.069,0,1,0-2.069,2.069A2.069,2.069,0,0,0,442.841,638.732Z"/><path class="f" d="M466.55,638.732a2.068,2.068,0,1,0-2.068,2.069A2.068,2.068,0,0,0,466.55,638.732Z"/><path class="f" d="M490.26,638.732a2.069,2.069,0,1,0-2.068,2.069A2.068,2.068,0,0,0,490.26,638.732Z"/><path class="f" d="M513.97,638.732A2.068,2.068,0,1,0,511.9,640.8,2.068,2.068,0,0,0,513.97,638.732Z"/><path class="f" d="M538.37,638.732A2.069,2.069,0,1,0,536.3,640.8,2.069,2.069,0,0,0,538.37,638.732Z"/><path class="f" d="M562.079,638.732a2.068,2.068,0,1,0-2.068,2.069A2.068,2.068,0,0,0,562.079,638.732Z"/><path class="f" d="M585.789,638.732a2.069,2.069,0,1,0-2.068,2.069A2.068,2.068,0,0,0,585.789,638.732Z"/><path class="f" d="M609.5,638.732a2.069,2.069,0,1,0-2.069,2.069A2.068,2.068,0,0,0,609.5,638.732Z"/></g><g class="e"><path class="f" d="M676.225,896.145a2.068,2.068,0,1,0-2.069,2.069A2.068,2.068,0,0,0,676.225,896.145Z"/><path class="f" d="M699.935,896.145a2.069,2.069,0,1,0-2.069,2.069A2.068,2.068,0,0,0,699.935,896.145Z"/><path class="f" d="M723.645,896.145a2.069,2.069,0,1,0-2.069,2.069A2.068,2.068,0,0,0,723.645,896.145Z"/><path class="f" d="M747.355,896.145a2.069,2.069,0,1,0-2.069,2.069A2.068,2.068,0,0,0,747.355,896.145Z"/><path class="f" d="M771.754,896.145a2.069,2.069,0,1,0-2.068,2.069A2.068,2.068,0,0,0,771.754,896.145Z"/><path class="f" d="M795.464,896.145a2.068,2.068,0,1,0-2.068,2.069A2.068,2.068,0,0,0,795.464,896.145Z"/><path class="f" d="M819.174,896.145a2.069,2.069,0,1,0-2.069,2.069A2.068,2.068,0,0,0,819.174,896.145Z"/><path class="f" d="M842.884,896.145a2.068,2.068,0,1,0-2.069,2.069A2.068,2.068,0,0,0,842.884,896.145Z"/><path class="f" d="M664.768,887.234A2.069,2.069,0,1,0,662.7,889.3,2.068,2.068,0,0,0,664.768,887.234Z"/><path class="f" d="M688.478,887.234a2.069,2.069,0,1,0-2.069,2.069A2.068,2.068,0,0,0,688.478,887.234Z"/><path class="f" d="M712.188,887.234a2.069,2.069,0,1,0-2.069,2.069A2.068,2.068,0,0,0,712.188,887.234Z"/><path class="f" d="M735.9,887.234a2.069,2.069,0,1,0-2.069,2.069A2.069,2.069,0,0,0,735.9,887.234Z"/><path class="f" d="M760.3,887.234a2.069,2.069,0,1,0-2.069,2.069A2.068,2.068,0,0,0,760.3,887.234Z"/><path class="f" d="M784.007,887.234a2.069,2.069,0,1,0-2.069,2.069A2.068,2.068,0,0,0,784.007,887.234Z"/><path class="f" d="M807.717,887.234a2.069,2.069,0,1,0-2.069,2.069A2.068,2.068,0,0,0,807.717,887.234Z"/><path class="f" d="M831.427,887.234a2.069,2.069,0,1,0-2.069,2.069A2.069,2.069,0,0,0,831.427,887.234Z"/><path class="f" d="M676.225,877.66a2.068,2.068,0,1,0-2.069,2.069A2.068,2.068,0,0,0,676.225,877.66Z"/><path class="f" d="M699.935,877.66a2.069,2.069,0,1,0-2.069,2.069A2.068,2.068,0,0,0,699.935,877.66Z"/><path class="f" d="M723.645,877.66a2.069,2.069,0,1,0-2.069,2.069A2.068,2.068,0,0,0,723.645,877.66Z"/><path class="f" d="M747.355,877.66a2.069,2.069,0,1,0-2.069,2.069A2.068,2.068,0,0,0,747.355,877.66Z"/><path class="f" d="M771.754,877.66a2.069,2.069,0,1,0-2.068,2.069A2.068,2.068,0,0,0,771.754,877.66Z"/><path class="f" d="M795.464,877.66a2.068,2.068,0,1,0-2.068,2.069A2.068,2.068,0,0,0,795.464,877.66Z"/><path class="f" d="M819.174,877.66a2.069,2.069,0,1,0-2.069,2.069A2.068,2.068,0,0,0,819.174,877.66Z"/><path class="f" d="M842.884,877.66a2.068,2.068,0,1,0-2.069,2.069A2.068,2.068,0,0,0,842.884,877.66Z"/><path class="f" d="M664.768,868.749a2.069,2.069,0,1,0-2.069,2.069A2.069,2.069,0,0,0,664.768,868.749Z"/><path class="f" d="M688.478,868.749a2.069,2.069,0,1,0-2.069,2.069A2.069,2.069,0,0,0,688.478,868.749Z"/><path class="f" d="M712.188,868.749a2.069,2.069,0,1,0-2.069,2.069A2.069,2.069,0,0,0,712.188,868.749Z"/><path class="f" d="M735.9,868.749a2.069,2.069,0,1,0-2.069,2.069A2.07,2.07,0,0,0,735.9,868.749Z"/><path class="f" d="M760.3,868.749a2.069,2.069,0,1,0-2.069,2.069A2.069,2.069,0,0,0,760.3,868.749Z"/><path class="f" d="M784.007,868.749a2.069,2.069,0,1,0-2.069,2.069A2.069,2.069,0,0,0,784.007,868.749Z"/><path class="f" d="M807.717,868.749a2.069,2.069,0,1,0-2.069,2.069A2.069,2.069,0,0,0,807.717,868.749Z"/><path class="f" d="M831.427,868.749a2.069,2.069,0,1,0-2.069,2.069A2.07,2.07,0,0,0,831.427,868.749Z"/><circle class="f" cx="2.069" cy="2.069" r="2.069" transform="translate(672.088 857.106)"/><path class="f" d="M699.935,859.175a2.069,2.069,0,1,0-2.069,2.069A2.069,2.069,0,0,0,699.935,859.175Z"/><path class="f" d="M723.645,859.175a2.069,2.069,0,1,0-2.069,2.069A2.069,2.069,0,0,0,723.645,859.175Z"/><circle class="f" cx="2.069" cy="2.069" r="2.069" transform="translate(743.217 857.106)"/><path class="f" d="M771.754,859.175a2.069,2.069,0,1,0-2.068,2.069A2.069,2.069,0,0,0,771.754,859.175Z"/><path class="f" d="M795.464,859.175a2.068,2.068,0,1,0-2.068,2.069A2.069,2.069,0,0,0,795.464,859.175Z"/><circle class="f" cx="2.069" cy="2.069" r="2.069" transform="translate(815.037 857.106)"/><path class="f" d="M842.884,859.175a2.068,2.068,0,1,0-2.069,2.069A2.069,2.069,0,0,0,842.884,859.175Z"/><path class="f" d="M664.768,850.264a2.069,2.069,0,1,0-2.069,2.068A2.069,2.069,0,0,0,664.768,850.264Z"/><path class="f" d="M688.478,850.264a2.069,2.069,0,1,0-2.069,2.068A2.069,2.069,0,0,0,688.478,850.264Z"/><path class="f" d="M712.188,850.264a2.069,2.069,0,1,0-2.069,2.068A2.069,2.069,0,0,0,712.188,850.264Z"/><path class="f" d="M735.9,850.264a2.069,2.069,0,1,0-2.069,2.068A2.069,2.069,0,0,0,735.9,850.264Z"/><path class="f" d="M760.3,850.264a2.069,2.069,0,1,0-2.069,2.068A2.069,2.069,0,0,0,760.3,850.264Z"/><path class="f" d="M784.007,850.264a2.069,2.069,0,1,0-2.069,2.068A2.069,2.069,0,0,0,784.007,850.264Z"/><path class="f" d="M807.717,850.264a2.069,2.069,0,1,0-2.069,2.068A2.069,2.069,0,0,0,807.717,850.264Z"/><path class="f" d="M831.427,850.264a2.069,2.069,0,1,0-2.069,2.068A2.069,2.069,0,0,0,831.427,850.264Z"/><path class="f" d="M676.225,840.69a2.068,2.068,0,1,0-2.069,2.068A2.069,2.069,0,0,0,676.225,840.69Z"/><path class="f" d="M699.935,840.69a2.069,2.069,0,1,0-2.069,2.068A2.069,2.069,0,0,0,699.935,840.69Z"/><path class="f" d="M723.645,840.69a2.069,2.069,0,1,0-2.069,2.068A2.069,2.069,0,0,0,723.645,840.69Z"/><path class="f" d="M747.355,840.69a2.069,2.069,0,1,0-2.069,2.068A2.069,2.069,0,0,0,747.355,840.69Z"/><path class="f" d="M771.754,840.69a2.069,2.069,0,1,0-2.068,2.068A2.068,2.068,0,0,0,771.754,840.69Z"/><path class="f" d="M795.464,840.69a2.068,2.068,0,1,0-2.068,2.068A2.068,2.068,0,0,0,795.464,840.69Z"/><path class="f" d="M819.174,840.69a2.069,2.069,0,1,0-2.069,2.068A2.069,2.069,0,0,0,819.174,840.69Z"/><path class="f" d="M842.884,840.69a2.068,2.068,0,1,0-2.069,2.068A2.069,2.069,0,0,0,842.884,840.69Z"/><path class="f" d="M664.768,831.779a2.069,2.069,0,1,0-2.069,2.068A2.069,2.069,0,0,0,664.768,831.779Z"/><path class="f" d="M688.478,831.779a2.069,2.069,0,1,0-2.069,2.068A2.069,2.069,0,0,0,688.478,831.779Z"/><path class="f" d="M712.188,831.779a2.069,2.069,0,1,0-2.069,2.068A2.069,2.069,0,0,0,712.188,831.779Z"/><path class="f" d="M735.9,831.779a2.069,2.069,0,1,0-2.069,2.068A2.069,2.069,0,0,0,735.9,831.779Z"/><path class="f" d="M760.3,831.779a2.069,2.069,0,1,0-2.069,2.068A2.069,2.069,0,0,0,760.3,831.779Z"/><path class="f" d="M784.007,831.779a2.069,2.069,0,1,0-2.069,2.068A2.069,2.069,0,0,0,784.007,831.779Z"/><path class="f" d="M807.717,831.779a2.069,2.069,0,1,0-2.069,2.068A2.069,2.069,0,0,0,807.717,831.779Z"/><path class="f" d="M831.427,831.779a2.069,2.069,0,1,0-2.069,2.068A2.069,2.069,0,0,0,831.427,831.779Z"/></g><path class="f" d="M725.75,655.089a9.943,9.943,0,0,1,9.864,8.7,9.952,9.952,0,0,1,9.869-8.7,9.951,9.951,0,0,1-9.869-8.7A9.942,9.942,0,0,1,725.75,655.089Z"/><path class="f" d="M752.622,651.479a4.688,4.688,0,0,1,4.651,4.1,4.694,4.694,0,0,1,4.654-4.1,4.693,4.693,0,0,1-4.654-4.1A4.687,4.687,0,0,1,752.622,651.479Z"/><path class="f" d="M724.226,680.117a17.783,17.783,0,0,1,17.642,15.561,17.8,17.8,0,0,1,17.653-15.561,17.8,17.8,0,0,1-17.653-15.562A17.783,17.783,0,0,1,724.226,680.117Z"/><g class="g"><path class="f" d="M425.658,798.126c17.521,8.789,30.617,22.7,38.918,40.4,5.347,11.4,7.31,24,11.891,35.68,5.436,13.861,16.581,20.716,27.859,29.545,9.653,7.556,19.213,15.739,25.9,26.086q1.31,2.027,2.463,4.171H486.569c-12.981-7.948-27.051-14.039-36.7-26.237C439.7,894.9,436.831,878.033,434.98,862.2c-1.44-12.326-2.546-24.932-6.9-36.654-4.536-12.213-11.915-23.3-19.547-33.774A75.183,75.183,0,0,1,425.658,798.126Z"/><path class="f" d="M435.2,741.619a57.033,57.033,0,0,1,9.749-15.488c7.951,20.7,17.892,38.2,33.276,54.339,10.615,11.138,21.95,21.812,30.166,34.82,6.463,10.234,10.284,21.636,10.418,33.369.159,14.025-6.23,27.168-8.875,40.835a193.417,193.417,0,0,0-3.368,44.6H475.5c-14.377-19.656-20.008-45.321-16.774-69.315.667-4.954,1.711-9.885,1.715-14.884.017-20.109-20.274-38.569-26.751-57.107C427.87,776.131,428.06,757.829,435.2,741.619Z"/></g><g class="g"><path class="f" d="M816.532,798.126c-17.521,8.789-30.618,22.7-38.919,40.4-5.346,11.4-7.31,24-11.891,35.68-5.436,13.861-16.58,20.716-27.859,29.545-9.653,7.556-19.213,15.739-25.9,26.086q-1.311,2.027-2.463,4.171H755.62c12.982-7.948,27.052-14.039,36.7-26.237,10.177-12.87,13.043-29.733,14.893-45.57,1.44-12.326,2.546-24.932,6.9-36.654,4.537-12.213,11.916-23.3,19.548-33.774A75.166,75.166,0,0,0,816.532,798.126Z"/><path class="f" d="M814.565,714.806a64.971,64.971,0,0,0-11.108-17.646c-9.058,23.58-20.384,43.518-37.911,61.908-12.093,12.69-25.008,24.851-34.368,39.672-7.364,11.659-11.718,24.649-11.87,38.017-.181,15.979,7.1,30.953,10.111,46.523a220.293,220.293,0,0,1,3.837,50.818h35.4c16.38-22.394,22.795-51.634,19.111-78.971-.761-5.644-1.95-11.262-1.955-16.957-.019-22.911,23.1-43.943,30.478-65.063C822.916,754.125,822.7,733.273,814.565,714.806Z"/></g><rect class="h" width="12.7" height="12.7" transform="translate(438.04 812.937) rotate(180)"/><rect class="i" width="5.715" height="5.715" transform="translate(507.923 678.539) rotate(-45)"/><circle class="j" cx="6.35" cy="6.35" r="6.35" transform="translate(412.85 729.496)"/><path class="k" d="M500.7,659.861a3.355,3.355,0,1,1-3.355,3.356A3.356,3.356,0,0,1,500.7,659.861Z"/><path class="l" d="M533.177,655.46h14.36v14.36h-14.36Zm13.855.505H533.683v13.349h13.349Z"/><rect class="m" width="5.715" height="5.715" transform="translate(775.222 700.598) rotate(-45)"/><path class="n" d="M756.023,646.875a3.355,3.355,0,1,1-3.356,3.356A3.356,3.356,0,0,1,756.023,646.875Z"/><path class="l" d="M780.108,661.344h14.36V675.7h-14.36Zm13.855.505h-13.35V675.2h13.35Z"/><path class="o" d="M474.443,693.986c-8.956,2.155-15.14,11.977-13.092,20.988.271,1.192-1.562,1.7-1.834.506-2.27-9.991,4.43-20.923,14.42-23.328,1.189-.286,1.7,1.547.506,1.834Z"/><path class="p" d="M472.188,682.87c-10.821,2.573-18.979,12.388-20.619,23.244a24.929,24.929,0,0,0,.354,9.3c.274,1.191-1.559,1.7-1.834.505-2.677-11.634,2.86-24.139,12.556-30.847a26.8,26.8,0,0,1,9.037-4.034c1.19-.283,1.7,1.55.506,1.834Z"/><path class="b" d="M641.1,872.719l.1-.215-25.749.108L589.7,872.5l.1.215-12.14.051,14.268,47.921h47.041l14.269-47.921Z"/><path class="q" d="M750.978,701.065H479.928c-5.4,0-9.607,5.45-9,11.674L486.2,869.478c.517,5.308,4.391,9.319,9,9.319H735.71c4.61,0,8.484-4.011,9-9.319l15.268-156.739C760.585,706.515,756.383,701.065,750.978,701.065Z"/><path class="r" d="M495.2,873.556c-1.871,0-3.533-2.015-3.784-4.586L476.144,712.231a6.255,6.255,0,0,1,1.428-4.759,3.237,3.237,0,0,1,2.355-1.166H750.978a3.239,3.239,0,0,1,2.356,1.166,6.255,6.255,0,0,1,1.427,4.759L739.493,868.97c-.25,2.571-1.912,4.586-3.784,4.586Z"/><path class="q" d="M632.739,907.447H598.167a56.106,56.106,0,0,0-46.4,24.565l-2.154,3.16H681.3l-2.154-3.16A56.105,56.105,0,0,0,632.739,907.447Z"/><rect class="s" width="174.469" height="192.563" transform="translate(559.848 619.255)"/><path class="t" d="M734.316,619.255V623.9L559.848,809.417v-49.85L691.805,619.255Z"/><path class="t" d="M734.316,634.382v14.426L581.024,811.818H567.448Z"/><path class="u" d="M738.869,609.829H555.234a9.426,9.426,0,0,0-9.426,9.426h0a9.427,9.427,0,0,0,9.426,9.427H738.869a9.427,9.427,0,0,0,9.426-9.427h0A9.426,9.426,0,0,0,738.869,609.829Z"/><path class="v" d="M674.039,725.319a27.227,27.227,0,1,0-38.034,25.073l1.652,7.155,18.871-.057,1.323-7.2A27.226,27.226,0,0,0,674.039,725.319Z"/><path class="w" d="M659.107,756.716v1.006a11.794,11.794,0,0,1-23.589,0v-1.006Z"/><path class="w" d="M653.381,768.693a6.147,6.147,0,0,1-6.068,5.147,6.134,6.134,0,0,1-6.058-5.147,10.578,10.578,0,0,0,12.126,0Z"/><path class="s" d="M652.052,755.209a1.006,1.006,0,0,1-.078-.283c-.04-.2-.1-.483-.166-.844-.14-.743-.329-1.842-.53-3.264a108.7,108.7,0,0,1-1.032-12.117c-.077-2.567-.079-5.385.058-8.4.03-.755.074-1.522.124-2.3a9.212,9.212,0,0,1,.345-2.412,2.543,2.543,0,0,1,1.906-1.773,1.753,1.753,0,0,1,1.379.391,2.573,2.573,0,0,1,.755,1.179c.96,3.64-2.669,7.518-6.622,6.974a6.277,6.277,0,0,1-4.563-3.4,5.845,5.845,0,0,1-.627-2.936,3.558,3.558,0,0,1,.451-1.513,1.912,1.912,0,0,1,1.338-1,1.68,1.68,0,0,1,1.56.648,3.14,3.14,0,0,1,.638,1.461,5.164,5.164,0,0,1-.518,2.975,6.235,6.235,0,0,1-4.576,3.392,5.289,5.289,0,0,1-2.839-.405,6.2,6.2,0,0,1-2.214-1.713,5.63,5.63,0,0,1-1.187-5.143,2.93,2.93,0,0,1,.746-1.167,1.508,1.508,0,0,1,1.4-.39,1.735,1.735,0,0,1,1.058.933,5.116,5.116,0,0,1,.414,1.206c.372,1.568.715,3.1.983,4.583.557,2.973.927,5.769,1.151,8.33a84.423,84.423,0,0,1,.213,12.16c-.08,1.433-.174,2.545-.26,3.3-.043.366-.077.649-.1.854a1.081,1.081,0,0,1-.055.289,1.132,1.132,0,0,1-.007-.295c.011-.206.024-.491.042-.858.047-.753.1-1.864.147-3.3a92.808,92.808,0,0,0-.4-12.11c-.251-2.546-.643-5.324-1.218-8.276-.277-1.478-.629-2.994-1.006-4.55a4.635,4.635,0,0,0-.374-1.082,1.207,1.207,0,0,0-.722-.66.964.964,0,0,0-.894.271,2.4,2.4,0,0,0-.594.948,5.1,5.1,0,0,0,1.11,4.592,5.624,5.624,0,0,0,2.006,1.546,4.722,4.722,0,0,0,2.521.353,5.652,5.652,0,0,0,4.121-3.072,4.6,4.6,0,0,0,.463-2.609,2.575,2.575,0,0,0-.508-1.179,1.073,1.073,0,0,0-1.01-.437,1.317,1.317,0,0,0-.906.711,2.972,2.972,0,0,0-.371,1.251,5.232,5.232,0,0,0,.562,2.627,5.7,5.7,0,0,0,4.114,3.09,5.454,5.454,0,0,0,4.648-1.73,5.723,5.723,0,0,0,1.278-2.131,3.82,3.82,0,0,0,.083-2.359,2.034,2.034,0,0,0-.579-.929,1.2,1.2,0,0,0-.948-.275,1.693,1.693,0,0,0-.921.488,2.343,2.343,0,0,0-.566.923,8.894,8.894,0,0,0-.331,2.271c-.055.776-.1,1.539-.139,2.291-.158,3.005-.18,5.811-.131,8.37.1,5.12.5,9.253.84,12.1.165,1.424.315,2.527.416,3.275.046.365.082.648.108.853A1.158,1.158,0,0,1,652.052,755.209Z"/><path class="s" d="M668.807,737.611a15.826,15.826,0,0,1,.753-1.91,26.017,26.017,0,0,0,1.472-5.35,25.773,25.773,0,0,0,.055-8.184,24.023,24.023,0,0,0-10.312-16.552,25.737,25.737,0,0,0-7.372-3.557,25.941,25.941,0,0,0-5.449-1.037,15.936,15.936,0,0,1-2.047-.166,1.549,1.549,0,0,1,.53-.071,13.8,13.8,0,0,1,1.531-.036,22.744,22.744,0,0,1,5.573.832,26.384,26.384,0,0,1,3.681,1.31,26.919,26.919,0,0,1,3.919,2.19,24.1,24.1,0,0,1,10.588,16.994,27.01,27.01,0,0,1,.238,4.483,26.27,26.27,0,0,1-.446,3.881,22.773,22.773,0,0,1-1.709,5.37,13.826,13.826,0,0,1-.708,1.359C668.93,737.469,668.829,737.623,668.807,737.611Z"/><g class="x"><path class="y" d="M599.6,785.14c.647-.739,1.081-.622,1.081-.622s4.223-4.3,5.027-3.687-2.569,3.552-1.861,3.637,5.405-.694,5.767.013a1.088,1.088,0,0,1,.014,1.154s1.675-.362,1.768-.011.363.792-1.041,1.6c0,0,.973.083-.338,1.242a5.639,5.639,0,0,1-3.185,2.087c-.5.074.326.394-4.97.741a17.094,17.094,0,0,0-10.154-.142l.431-3.423S598.059,786.9,599.6,785.14Z"/><path class="z" d="M544.175,776.572s20.563,10.125,23.681,10.165,30.5-1.629,30.5-1.629l.648,7.445s-32.056,7.185-35.44,6.064-18.165-5.166-18.165-5.166Z"/><path class="aa" d="M537.366,934.147c5.065,16.02.523,6.332,4.138,17.023.1-.012.13,1.547,2.774.718,2.72-.854,2.941.316,2.941.316a175.729,175.729,0,0,0-.851-21.677C541.91,931.8,541.809,932.818,537.366,934.147Z"/><path class="ab" d="M558.192,951.188c-5.059-.02-16.549-1.937-16.549-1.937a2.393,2.393,0,0,0-2.565,1.9c-.265,1.3.919,3.609,1.448,6.052.31,1.434,1.69,1.915,3.154,2.015a29.708,29.708,0,0,0,16.5-3.173C561.389,955.472,563.251,951.207,558.192,951.188Z"/><path class="ab" d="M517.032,830.955s2.329,16.326,6.929,22.68l6.352,33.162,7.945,61.209,10.8-2.64-2.021-62.657s-.155-36.893-4.492-56.145Z"/><path class="q" d="M567.666,800.467q-6.91,2.049-13.484,4.014a4.247,4.247,0,0,1,.56,1.58q6.532-1.924,13.407-3.963c41.754-12.384,75.5-22.79,75.367-23.241S609.419,788.083,567.666,800.467Z"/><path class="y" d="M556.62,804.011c.646-.739,1.08-.623,1.08-.623s4.223-4.3,5.027-3.687-2.569,3.553-1.861,3.637,5.4-.694,5.767.013a1.088,1.088,0,0,1,.014,1.154s1.675-.361,1.768-.01.363.792-1.041,1.6c0,0,.974.083-.338,1.243a5.639,5.639,0,0,1-3.185,2.087c-.5.073.326.394-4.97.741a17.1,17.1,0,0,0-10.154-.143l.431-3.422S555.077,805.772,556.62,804.011Z"/><path class="aa" d="M510.478,936.074c-.028,16.8-1.42,6.193-1.216,17.476.1.02-.345,1.514,2.426,1.525,2.851.012,3.18-1.245,3.18-1.245a116.034,116.034,0,0,0,5.286-18.477C515.518,935.219,515.114,936.154,510.478,936.074Z"/><path class="b" d="M524.129,955.96c-4.979-.892-15.24-5.819-15.24-5.819a2.391,2.391,0,0,0-2.853,1.425c-.485,1.233-.445,4.772-.345,7.269.059,1.467,1.334,2.178,2.759,2.529,6.985,1.718,13.6,2.244,19,.77C528.739,961.781,529.109,956.852,524.129,955.96Z"/><path class="b" d="M514.3,829.1s-1.615,16.412,1.345,23.677l-1.7,33.722-6.816,61.345h11.121L531.163,886.5s8.61-35.875,8.968-55.605Z"/><path class="s" d="M511.744,834.707l-1.422-38.978s-2.826-15.944,1.9-18.772a109.449,109.449,0,0,1,12-5.8h12.329s8.139,6.2,9.8,7.892,2.38,53.757,2.38,53.757Z"/><path class="ac" d="M538.933,772.786l1.682,64.177s6.7,2.7,8.3,1.335c11.374-9.676.085-57.36-2.166-59.695A46.394,46.394,0,0,0,538.933,772.786Z"/><path class="ac" d="M522.707,771.915s6.116-1.376,6.629,34.3l1.376,32.422s-16.574,4.57-20.255,1.083c-7.862-7.446-.034-41.815-.264-43.313s-1.139-12.3-.889-13.814.024-4.557,4.766-6.948A77.384,77.384,0,0,1,522.707,771.915Z"/><path class="ad" d="M522.707,771.915c4.594,10.522.923,23.464,1.275,23.228s4.486.911,4.486.911l-1.882,2.192,3.367,27.305s-.768-32.578-1.734-38.668S526.565,770.9,522.707,771.915Z"/><path class="ad" d="M538.933,772.786a9.536,9.536,0,0,1,1.682,4.657c.1,2.515,3.843,16.243,3.843,16.243l-4.491,2.248L541,798.246l-.686,27.305Z"/><path class="z" d="M520.178,781.169s-1.51-8.2-7.338-4.964-7.337,11.87-4.748,21.15,2.236,17.674,4.356,20.276,9.457,8.429,9.889,2.6S520.178,781.169,520.178,781.169Z"/><path class="b" d="M541.779,753.075s8.545-5.493,4.476-7.324-15.258-8.341-21.769,0-6.713,18.853,0,19.8S541.779,753.075,541.779,753.075Z"/><path class="aa" d="M542.39,754.7s4.611,14.919-2.713,14.919-15.191-4.069-15.191-4.069l1.085-8.951,3.256,4.611.271-7.6s4.611-4.883,9.494-4.069S542.39,754.7,542.39,754.7Z"/><path class="aa" d="M535.9,765.454V775.2s-3.712,1.874-8.909-1.874l-.99-9.555Z"/><path class="ae" d="M534.5,776.895l.806,1.65,4.9,37.231-4.144,9.214-4.967-6.519-.023-40.214.935-1.3-1.626-.428.613-2.22,2.024,1.076.959-1.73,2.393,1.688Z"/><path class="af" d="M533.972,773.654l2.879,2.065,2.05-2.752-2.354-1.807-.667-.136v1.565Z"/><path class="af" d="M530.989,774.308l-.721,2.706a37.469,37.469,0,0,1-3.777-1.564c0-.162-.485-4.425-.485-4.425l.755.162.809,2.212Z"/><path class="z" d="M556.76,810.521l-31.564,10.2s-8.069,4.867-12.748-3.087c-5.02-8.535,8.3-10.7,8.3-10.7l35.363-3.694Z"/></g><path class="ag" d="M712,864.441a1.737,1.737,0,0,1-.6-.761,3.269,3.269,0,0,1,0-2.316,1.737,1.737,0,0,1,.6-.761,1.574,1.574,0,0,1,1.757,0,1.731,1.731,0,0,1,.6.761,3.269,3.269,0,0,1,0,2.316,1.732,1.732,0,0,1-.6.761,1.574,1.574,0,0,1-1.757,0Zm1.6-.246a1.455,1.455,0,0,0,.485-.653,3.11,3.11,0,0,0,0-2.04,1.455,1.455,0,0,0-.485-.653,1.257,1.257,0,0,0-1.435,0,1.444,1.444,0,0,0-.483.653,3.093,3.093,0,0,0,0,2.04,1.444,1.444,0,0,0,.483.653,1.257,1.257,0,0,0,1.435,0Z"/><path class="ag" d="M717.662,862.5a1.112,1.112,0,0,1,.426.934,1.265,1.265,0,0,1-.17.656,1.175,1.175,0,0,1-.508.453,1.878,1.878,0,0,1-.832.166,2.415,2.415,0,0,1-.879-.159,1.629,1.629,0,0,1-.637-.42l.16-.24a1.473,1.473,0,0,0,.564.382,2.06,2.06,0,0,0,.786.148,1.332,1.332,0,0,0,.89-.266.883.883,0,0,0,.312-.708.851.851,0,0,0-.355-.739,2.121,2.121,0,0,0-1.192-.253h-.876l.229-2.089h2.286v.284h-2.021l-.167,1.521h.616A2.251,2.251,0,0,1,717.662,862.5Z"/><path class="ag" d="M718.775,864.626a.256.256,0,0,1-.077-.188.244.244,0,0,1,.077-.184.257.257,0,0,1,.363,0,.238.238,0,0,1,.078.184.25.25,0,0,1-.078.188.252.252,0,0,1-.363,0Z"/><path class="ag" d="M722.333,862.5a1.114,1.114,0,0,1,.425.934,1.265,1.265,0,0,1-.17.656,1.166,1.166,0,0,1-.507.453,1.883,1.883,0,0,1-.833.166,2.4,2.4,0,0,1-.878-.159,1.641,1.641,0,0,1-.638-.42l.161-.24a1.465,1.465,0,0,0,.564.382,2.058,2.058,0,0,0,.785.148,1.337,1.337,0,0,0,.891-.266.882.882,0,0,0,.311-.708.853.853,0,0,0-.354-.739,2.127,2.127,0,0,0-1.193-.253h-.875l.228-2.089h2.286v.284h-2.021l-.167,1.521h.617A2.253,2.253,0,0,1,722.333,862.5Z"/><path class="ag" d="M726.228,860.365v.222l-1.855,4.092h-.345l1.837-4.03h-2.422v.825h-.308v-1.109Z"/><path class="ah" d="M430.951,870.847s-19.64,3.274-30.77-10.147l3.928-6.22-7.528-.327a27.492,27.492,0,0,1-5.893-13.421c-.982-7.857-9.82-22.26-9.82-22.26a50.063,50.063,0,0,1,27.824,10.8C421.459,839.75,440.772,854.807,430.951,870.847Z"/><path class="ai" d="M440.247,927.193c.031-.317,3.146-32.164-8.884-56.546l-.823.4c11.913,24.149,8.825,55.736,8.794,56.054Z"/><path class="aj" d="M431.361,871.747c-2.065-3.711-4.313-7.317-6.649-10.862s-4.833-6.982-7.445-10.328-5.39-6.559-8.317-9.633a89.973,89.973,0,0,0-9.505-8.458,80.789,80.789,0,0,1,9.6,8.365q4.42,4.594,8.379,9.6A157.155,157.155,0,0,1,431.361,871.747Z"/><path class="ah" d="M449.458,882.555s13.924,2.32,21.814-7.194l-2.785-4.409,5.337-.232A19.489,19.489,0,0,0,478,861.206c.7-5.57,6.962-15.78,6.962-15.78a35.487,35.487,0,0,0-19.725,7.658C456.188,860.509,442.5,871.184,449.458,882.555Z"/><path class="ai" d="M442.869,922.5c-.022-.225-2.231-22.8,6.3-40.086l.584.285c-8.445,17.12-6.256,39.513-6.234,39.738Z"/><path class="aj" d="M449.168,883.193a109.858,109.858,0,0,1,9.857-15.127q2.8-3.549,5.949-6.8a56.031,56.031,0,0,1,6.82-5.917,65.546,65.546,0,0,0-6.725,6.01q-3.108,3.27-5.887,6.833T453.9,875.5C452.241,878.015,450.642,880.567,449.168,883.193Z"/><path class="ah" d="M443.994,857.467s19.473-.318,27.811-15.194l-4.878-5.29,7.186-1.644a26.9,26.9,0,0,0,3.3-13.952c-.443-7.731,5.517-23.148,5.517-23.148a48.966,48.966,0,0,0-24.86,15.3C447.636,825.875,431.715,843.771,443.994,857.467Z"/><path class="ai" d="M445,913.315c-.086-.3-8.7-30.387-1.437-55.967l.863.242c-7.2,25.335,1.351,55.178,1.437,55.478Z"/><path class="aj" d="M443.76,858.406a153.479,153.479,0,0,1,9.642-22.965q2.911-5.517,6.366-10.718a78.8,78.8,0,0,1,7.76-9.742,88.19,88.19,0,0,0-7.649,9.816q-3.41,5.211-6.3,10.736t-5.34,11.25C446.618,850.6,445.092,854.471,443.76,858.406Z"/><path class="ak" d="M426.624,917.3a13.715,13.715,0,0,0,.321,3.071,15.934,15.934,0,0,0,9.028,11.411h-5.637v3.07h24.518v-3.07h-5.637a15.934,15.934,0,0,0,9.028-11.411,13.715,13.715,0,0,0,.321-3.071,14.244,14.244,0,0,0-.458-3.712,15.628,15.628,0,0,0-3.987-7.287,3.831,3.831,0,0,0-.275-7.653h-22.5a3.831,3.831,0,0,0-.275,7.653,15.617,15.617,0,0,0-3.986,7.287A14.2,14.2,0,0,0,426.624,917.3Z"/><path class="ai" d="M426.624,917.3a13.715,13.715,0,0,0,.321,3.071h31.3a13.715,13.715,0,0,0,.321-3.071,14.244,14.244,0,0,0-.458-3.712H427.083A14.2,14.2,0,0,0,426.624,917.3Z"/><path class="al" d="M701.468,920.383s.207,4.258-.419,4.813a17.635,17.635,0,0,1-2.239,1.468s8.029,4.119,9.638,1.956,1.013-11.214,1.013-11.214Z"/><path class="am" d="M688.825,929.949s-5.265.307-5.723,2.726c-.241,1.273,0,1.464,0,1.464h27.1s.9-.016.83-2l-.344-6.373s-.837-.495-2.306.834-4.885,2.1-8.524-1.748c0,0-.543-.419-2.85,1.4S695.25,929.949,688.825,929.949Z"/><path class="al" d="M693.379,895.1s-1.726,3.9-2.535,4.113a17.589,17.589,0,0,1-2.659.308s5.327,7.284,7.735,6.073,5.937-9.567,5.937-9.567Z"/><path class="an" d="M677.787,897.973s-4.843-2.088-6.337-.132c-.787,1.03-.657,1.309-.657,1.309l24.216,12.16s.813.39,1.641-1.418l2.553-5.85s-.527-.818-2.436-.289-5.305-.32-6.833-5.387c0,0-.3-.618-3.173-.031S683.529,900.857,677.787,897.973Z"/><path class="ao" d="M713.211,874.772a14.3,14.3,0,0,0,.8,4.753,13.1,13.1,0,0,0,2.448,4.22,10.465,10.465,0,0,0,7.863,3.716h96.591c6.126,0,11.1-5.686,11.1-12.689a13.605,13.605,0,0,0-3.251-8.972,10.436,10.436,0,0,0-7.849-3.716H724.325a10.615,10.615,0,0,0-8.666,4.752A13.763,13.763,0,0,0,713.211,874.772Z"/><path class="ao" d="M713.211,922.151a13.881,13.881,0,0,0,1.542,6.441,12.537,12.537,0,0,0,1.709,2.532,10.469,10.469,0,0,0,7.863,3.716h96.591c6.126,0,11.1-5.686,11.1-12.689a13.605,13.605,0,0,0-3.251-8.972,10.436,10.436,0,0,0-7.849-3.716H724.325a10.945,10.945,0,0,0-9.676,6.44A14.027,14.027,0,0,0,713.211,922.151Z"/><path class="v" d="M716.916,896.759a13.673,13.673,0,0,0,3.251,8.987,10.439,10.439,0,0,0,7.85,3.717h96.59a11.008,11.008,0,0,0,9.78-6.663,14.33,14.33,0,0,0-.311-12.7,12.476,12.476,0,0,0-1.606-2.309,10.466,10.466,0,0,0-7.863-3.717h-96.59C721.89,884.07,716.916,889.756,716.916,896.759Z"/><path class="ap" d="M715.72,874.772a14.3,14.3,0,0,0,.8,4.753h102.5a6.344,6.344,0,0,0,6.344-6.344h0a6.344,6.344,0,0,0-6.344-6.345H718.168A13.763,13.763,0,0,0,715.72,874.772Z"/><path class="ap" d="M728.885,890.1v12.7H831.46a14.33,14.33,0,0,0-.311-12.7Z"/><path class="ap" d="M716.138,922.151a13.892,13.892,0,0,0,1.541,6.441H820.967V915.9H717.576A14.027,14.027,0,0,0,716.138,922.151Z"/><path class="an" d="M746.521,837.452s-34.53-2.2-38.193-.707c-8.487,3.448-15.913,56.935-16.267,59.41s9.9,8.488,9.9,7.073,19.8-45.265,19.8-45.265,20.157-2.122,20.511-3.183S746.521,837.452,746.521,837.452Z"/><path class="b" d="M779.02,835.6s10.779,15.983,3.345,27.134-43.488,1.858-43.488,1.858L712.486,865.7s2.774,51.655-.975,56.576c-2.122,2.785-12.6-.663-12.6-.663s-6.87-52.94-7.985-59.259,7.587-18.983,25.887-20.309c16.35-1.184,26.894-4.594,26.894-4.594Z"/><path class="aq" d="M758.971,773.359s-20.062,2.6-19.593,15.032c.32,8.487-2.2,29.337-2.2,29.337l-21.717,6.033,4.525,6.635s31.368-.9,31.368-4.826S758.971,773.359,758.971,773.359Z"/><path class="ar" d="M721.679,822.074l1.676-.466,9,8.124-4.261.474Z"/><path class="as" d="M707.259,822.354s-1.09.671-.32,1.392.987.72.987.72l.672-.691Z"/><path class="at" d="M730.56,832.166,714.277,811.53l-9.384,8.311S721.382,837.4,721.785,837.4,730.56,832.166,730.56,832.166Z"/><path class="l" d="M715.015,816.169l.995,1.243-6.052,3.979-.663-.414Z"/><path class="l" d="M716.714,817.868l.995,1.243-6.052,3.979-.663-.415Z"/><path class="l" d="M718.414,819.567l.995,1.244-6.052,3.979-.663-.414Z"/><path class="l" d="M723.85,827.36l.805,1.007-4.9,3.221-.537-.336Z"/><path class="au" d="M715.973,831.543s-3.975,1.38-5.583,0-4.833-5.241-2.681-7.077c1.047-.893.889-.691.889-.691s4.2.021,5.914,1.529S719.255,830.932,715.973,831.543Z"/><path class="av" d="M772.188,772.075l.486,2.4a10.891,10.891,0,0,1-6.541,2.72c-4.177.324-7.123-3.853-7.123-3.853l.226-1.489Z"/><path class="ah" d="M740.452,803.268c.1,4.627,2.561,7.442,6.092,11.342.446.694,1.543,11.005,1.917,17.861.194,3.567-1.33,5.809,0,6.1,5.081,4.432,23.392,8.022,31.793,1.973-.882-7.458,2.458-23.883,4.712-32.236.352-1.286.661-2.37.941-3.208,2.1-6.344-.63-25.693-1.282-26.515-3.2-4.03-11.9-4.86-11.9-4.86s-.469,9.434-10.362,10.793c-5.4-2.224-3.432-8-3.367-11.139-1.766.489-4.419,1.236-9.892,2.857-1.535,2.212-.211,6.829-2.689,13.711C745.8,791.661,740.33,797.635,740.452,803.268Z"/><path class="aw" d="M794.828,847.235s.822,5.006,3.885,7.1,4.931,4.632,8.591,5.155,8.592-.373,8.443,1.345l0,.6s-20.1.3-21.52,0-2.614-1.046-3.287-4.782-1.314-8.362-1.314-8.362Z"/><path class="aw" d="M803.718,860.234s6.351.9,5.081,1.793-7.546.9-9.264-.9S803.718,860.234,803.718,860.234Z"/><path class="ah" d="M782.226,808.91l6.462,44.079,8.078-1s3.241-41.843.553-46.8-11.236-23.483-11.236-23.483-8.063-11.165-14.266-2.068S782.226,808.91,782.226,808.91Z"/><path class="ax" d="M748.088,761.61c.124.425-1.832,2.65-1.142,3.806s2.311,1.415,2.3,1.093S748.088,761.61,748.088,761.61Z"/><path class="ay" d="M747.765,760.186c-.327-8.46,4.565-15.518,10.928-15.764s11.786,6.413,12.113,14.873c.283,7.324-3.348,13.587-8.455,15.3l8.969,6.527-8.025,5.42c-1.164.575-5.515-2.25-5.627-3.544l1.285-7.965c-1.861-.124-5.571.271-7.121-.893C748.422,771.579,747.979,765.718,747.765,760.186Z"/><path class="az" d="M750.924,744.332c-7.454,4.5-2.825,12.306,3.343,18.45q.081.081.165.162c5.532,5.364,7.383,7.321,7.8,18.209s-4.65,24.016,4.867,34.044,14.971,13.368,14.971,13.368,6.35.261,9.423-18.622,13.981-12.206,7.356-26.149-12.223-7.9-17.485-19.357-8.662-25.853-18.926-22.414C759.782,742.915,752.986,743.087,750.924,744.332Z"/></g></svg>